<svg height="511pt" viewBox="1 0 511.99988 511" width="511pt" xmlns="http://www.w3.org/2000/svg"><path d="m436.976562 437.421875c-100.035156 100.035156-261.933593 100.019531-361.957031 0-100.035156-100.039063-100.019531-261.9375 0-361.957031 7.808594-7.8125 20.46875-7.8125 28.277344 0 7.8125 7.808594 7.8125 20.46875 0 28.277344-84.402344 84.402343-84.390625 221.007812 0 305.398437 84.40625 84.410156 221.011719 84.394531 305.402344.003906 84.40625-84.40625 84.394531-221.011719 0-305.402343-7.808594-7.808594-7.808594-20.472657 0-28.277344 7.808593-7.808594 20.46875-7.8125 28.277343 0 100.039063 100.035156 100.023438 261.933594 0 361.957031zm-180.976562-160.984375c11.042969 0 19.996094-8.953125 19.996094-19.996094v-235.945312c0-11.042969-8.953125-19.996094-19.996094-19.996094s-19.996094 8.953125-19.996094 19.996094v235.945312c0 11.042969 8.953125 19.996094 19.996094 19.996094zm0 0"/></svg>